<?xml version="1.0" encoding="UTF-8" standalone="no"?>
<svg width="27px" height="27px" viewBox="0 0 27 27" version="1.1" xmlns="http://www.w3.org/2000/svg" xmlns:xlink="http://www.w3.org/1999/xlink">
    <!-- Generator: Sketch 43.1 (39012) - http://www.bohemiancoding.com/sketch -->
    <title>Shape</title>
    <desc>Created with Sketch.</desc>
    <defs></defs>
    <g id="App-Design" stroke="none" stroke-width="1" fill="none" fill-rule="evenodd">
        <g id="Listing---Map" transform="translate(-46.000000, -344.000000)" fill-rule="nonzero" fill="#CCCACC">
            <g id="cafe-copy" transform="translate(39.000000, 338.000000)">
                <g id="cafe-sign" transform="translate(7.000000, 6.000000)">
                    <path d="M15.0792724,2.02336828 C11.8855736,2.02336828 8.99525841,3.34766571 6.92876553,5.47574485 C6.9022503,5.47227629 6.87511842,5.47050347 6.84767823,5.47050347 L1.56451692,5.47050347 L1.56451692,1.3120045 C1.56451692,0.971468674 1.28841929,0.695371043 0.947883459,0.695371043 C0.607347631,0.695371043 0.33125,0.971468674 0.33125,1.3120045 L0.33125,25.4639955 C0.33125,25.8045313 0.607347631,26.080629 0.947883459,26.080629 C1.28841929,26.080629 1.56451692,25.8045313 1.56451692,25.4639955 L1.56451692,21.3054965 L6.84767823,21.3054965 C6.87511842,21.3054965 6.9022503,21.3037237 6.92876553,21.3002551 C8.99533549,23.4283343 11.8856507,24.7526317 15.0792724,24.7526317 C21.3456558,24.7526317 26.44375,19.6544604 26.44375,13.3880771 C26.44375,7.12169371 21.3456558,2.02336828 15.0792724,2.02336828 Z M1.56451692,20.0721525 L1.56451692,6.70377039 L5.89320672,6.70377039 C4.52350965,8.58087971 3.71464071,10.8915594 3.71464071,13.388 C3.71464071,15.8844406 4.52350965,18.1950432 5.8932838,20.0722296 L1.56451692,20.0722296 L1.56451692,20.0721525 Z M15.0792724,23.5192877 C9.49280453,23.5192877 4.94790763,18.9743908 4.94790763,13.388 C4.94790763,7.80160918 9.49280453,3.25671227 15.0792724,3.25671227 C20.6656633,3.25671227 25.2104831,7.80160918 25.2104831,13.388 C25.2104831,18.9743908 20.6656633,23.5192877 15.0792724,23.5192877 Z M20.4636387,9.42597587 L20.1546283,9.42597587 L20.1546283,9.07387816 C20.1546283,8.73334234 19.8785306,8.45724471 19.5379948,8.45724471 L16.7079556,8.45724471 C16.3674197,8.45724471 16.0913221,8.73334234 16.0913221,9.07387816 C16.0913221,9.41441399 16.3674197,9.69051162 16.7079556,9.69051162 L18.9213614,9.69051162 L18.9213614,12.6161291 C18.9213614,14.2293964 17.6089341,15.5418236 15.9957439,15.5418236 L14.0377014,15.5418236 C12.4245112,15.5418236 11.112084,14.2293964 11.112084,12.6161291 L11.112084,9.69051162 L13.0002927,9.69051162 C12.7118624,10.6222448 12.8334934,11.7066718 13.5745326,12.397995 C13.8235755,12.6303116 14.2137503,12.6167457 14.446067,12.3677029 C14.6783836,12.1187371 14.6648177,11.7284852 14.4157748,11.4961685 C13.95646,11.0676083 13.9906061,10.0778345 14.4862252,9.45935115 C15.2711225,8.47982891 15.4353012,6.72542964 14.4158519,5.77427253 C14.1668091,5.54172463 13.7766343,5.55536765 13.5443176,5.80441049 C13.3120009,6.05337625 13.3254898,6.44362815 13.5744556,6.6759448 C13.9760381,7.05070379 14.0000868,7.88207985 13.6640986,8.47967475 C13.6113765,8.4650297 13.5558795,8.45716763 13.4985326,8.45716763 L10.4955276,8.45716763 C10.1549918,8.45716763 9.87889416,8.73326526 9.87889416,9.07380108 L9.87889416,12.616052 C9.87889416,14.9093118 11.7445958,16.7750134 14.0377785,16.7750134 L15.995821,16.7750134 C17.7317213,16.7750134 19.2225868,15.7060023 19.84477,14.1917046 L20.4637158,14.1917046 C21.5888406,14.1917046 22.5041559,13.2763123 22.5041559,12.1511874 L22.5041559,11.4663389 C22.5040788,10.3413682 21.5887635,9.42597587 20.4636387,9.42597587 Z M21.2708119,12.1513416 C21.2708119,12.5963968 20.9086939,12.9585919 20.4636387,12.9585919 L20.1546283,12.9585919 L20.1546283,10.6593199 L20.4636387,10.6593199 C20.9086939,10.6593199 21.2708119,11.0214379 21.2708119,11.4665701 L21.2708119,12.1513416 Z M20.8392456,18.801271 C20.8392456,19.1418068 20.5631479,19.4179044 20.2226121,19.4179044 L9.8109874,19.4179044 C9.47045157,19.4179044 9.19435394,19.1418068 9.19435394,18.801271 C9.19435394,18.4607351 9.47045157,18.1846375 9.8109874,18.1846375 L20.2226121,18.1846375 C20.563225,18.1846375 20.8392456,18.4607351 20.8392456,18.801271 Z" id="Shape"></path>
                </g>
            </g>
        </g>
    </g>
</svg>