<svg xmlns="http://www.w3.org/2000/svg" viewBox="670 539 504.056 512">
  <defs>
    <style>
      .cls-1 {
        fill: #ffe100;
      }

      .cls-2 {
        fill: #ffa800;
      }

      .cls-3 {
        fill: #fff;
      }

      .cls-4 {
        fill: #fedd61;
      }
    </style>
  </defs>
  <g id="coffee-cup" transform="translate(667.028 540)">
    <g id="Group_26" data-name="Group 26">
      <path id="Path_31" data-name="Path 31" class="cls-1" d="M448.766,202.034H436.407c4.414,0,7.945,4.414,7.945,8.828-.883,114.759-20.3,238.345-185.379,238.345,181.848,0,209.214-113.876,211.862-225.1a21.856,21.856,0,0,0-22.069-22.07"/>
      <path id="Path_32" data-name="Path 32" class="cls-1" d="M408.159,405.069a9.272,9.272,0,0,1-7.945-4.414c-1.766-3.531-1.766-7.062.883-9.71,36.193-45.021,42.372-109.462,43.255-161.545,0-3.531,2.648-7.062,5.3-7.945.883,0,2.648-.883,3.531-.883,29.131,0,52.966,31.779,52.966,70.621,0,50.317-30.014,105.048-97.1,113.876Zm53.848-165.076c-1.766,45.9-7.062,98.869-33.545,142.124,44.138-15.007,60.028-56.5,60.028-90.924C488.49,267.359,477.014,246.172,462.007,239.993Z"/>
      <path id="Path_33" data-name="Path 33" class="cls-1" d="M433.759,475.69l-105.931,7.945c-5.3,0-9.71,3.531-12.359,8.828s-7.945,8.828-13.241,8.828H172.463c-5.3,0-10.593-3.531-13.241-8.828s-7.062-8.828-12.359-8.828L48.877,475.69c-6.179-.883-10.593-5.3-10.593-12.359,0-7.945,5.3-14.124,12.359-14.124H431.11c7.062,0,12.359,6.179,12.359,14.124.883,7.062-3.531,11.476-9.71,12.359"/>
    </g>
    <path id="Path_34" data-name="Path 34" class="cls-2" d="M459.359,475.69c7.062-.883,11.476-5.3,11.476-12.359a13.943,13.943,0,0,0-14.124-14.124H431.994c7.062,0,12.359,6.179,12.359,14.124,0,7.062-4.414,10.593-10.593,12.359"/>
    <path id="Path_35" data-name="Path 35" class="cls-3" d="M48.876,475.69c-6.179-.883-10.593-5.3-10.593-12.359,0-7.945,5.3-14.124,12.359-14.124H25.924A13.943,13.943,0,0,0,11.8,463.331c0,7.062,5.3,10.593,11.476,12.359"/>
    <path id="Path_36" data-name="Path 36" class="cls-4" d="M241.317,202.034H63.883c-4.414,0-7.945,4.414-7.945,8.828.883,114.759,20.3,238.345,185.379,238.345S425.814,325.621,426.7,210.862c0-5.3-3.531-8.828-7.945-8.828Z"/>
    <path id="Path_37" data-name="Path 37" class="cls-3" d="M55.938,210.862c0-5.3,3.531-8.828,7.945-8.828h-25.6a8.846,8.846,0,0,0-8.828,8.828c.883,114.759,22.952,238.345,211.862,238.345-165.076,0-184.5-123.586-185.379-238.345"/>
    <path id="Path_38" data-name="Path 38" class="cls-2" d="M444.352,202.034h-25.6c4.414,0,7.945,4.414,7.945,8.828-.883,114.759-20.3,238.345-185.379,238.345,188.91,0,210.979-123.586,211.862-238.345a8.848,8.848,0,0,0-8.828-8.828"/>
    <g id="Group_27" data-name="Group 27">
      <path id="Path_39" data-name="Path 39" class="cls-1" d="M250.145,157.9a8.014,8.014,0,0,1-6.179-2.648c-13.241-14.124-20.3-28.248-20.3-42.372s7.062-27.366,20.3-40.607c9.71-8.828,15.007-18.538,15.007-28.248s-5.3-19.421-15.007-30.014a8.534,8.534,0,0,1,0-12.359,8.534,8.534,0,0,1,12.359,0c14.124,13.241,20.3,27.366,20.3,42.372,0,14.124-7.062,28.248-20.3,40.607-9.71,8.828-15.007,18.538-15.007,28.248s5.3,19.421,15.007,30.014a8.534,8.534,0,0,1,0,12.359A8.018,8.018,0,0,1,250.145,157.9Z"/>
      <path id="Path_40" data-name="Path 40" class="cls-1" d="M347.248,157.9a8.014,8.014,0,0,1-6.179-2.648c-13.241-14.124-20.3-28.248-20.3-42.372s7.062-27.366,20.3-40.607c9.71-9.71,15.007-18.538,15.007-28.248s-5.3-19.421-15.007-30.014a8.534,8.534,0,0,1,0-12.359,8.534,8.534,0,0,1,12.359,0c14.124,13.241,20.3,27.366,20.3,42.372,0,14.124-7.062,28.248-21.186,40.607-9.71,8.828-15.007,18.538-15.007,28.248s5.3,19.421,15.007,30.014a8.534,8.534,0,0,1,0,12.359Q351.22,157.9,347.248,157.9Z"/>
      <path id="Path_41" data-name="Path 41" class="cls-1" d="M161.869,157.9a8.014,8.014,0,0,1-6.179-2.648c-13.241-14.124-20.3-28.248-20.3-42.372s7.062-27.366,20.3-40.607C165.4,62.56,170.7,53.732,170.7,44.022S165.4,24.6,155.69,14.007a8.534,8.534,0,0,1,0-12.359,8.534,8.534,0,0,1,12.359,0c14.124,13.241,20.3,27.366,20.3,42.372,0,14.124-7.062,28.248-21.186,40.607-9.71,8.828-15.007,18.538-15.007,28.248s5.3,19.421,15.007,30.014a8.534,8.534,0,0,1,0,12.359Q165.842,157.9,161.869,157.9Z"/>
    </g>
    <path id="Path_42" data-name="Path 42" d="M310.172,511H163.634a25.45,25.45,0,0,1-22.952-14.124,6.639,6.639,0,0,0-6.179-4.414l-112.11-7.945c-12.359-2.648-19.421-10.593-19.421-21.186a22.792,22.792,0,0,1,22.952-22.952h429.9a22.792,22.792,0,0,1,22.952,22.952c0,10.593-7.062,18.538-19.421,21.186h-.883L338.42,492.462a6.638,6.638,0,0,0-6.179,4.414C328.71,505.7,319.883,511,310.172,511ZM25.041,466.862l110.345,7.945a27.521,27.521,0,0,1,21.186,14.124c1.766,2.648,4.414,4.414,7.062,4.414H311.055c2.648,0,5.3-1.766,7.062-4.414A27.522,27.522,0,0,1,339.3,474.807l118.29-7.945c4.414-.883,4.414-2.648,4.414-3.531a5.7,5.7,0,0,0-5.3-5.3H25.924a5.7,5.7,0,0,0-5.3,5.3C20.628,464.214,20.628,465.979,25.041,466.862Z"/>
    <path id="Path_43" data-name="Path 43" d="M241.317,157.9a8.014,8.014,0,0,1-6.179-2.648c-13.241-14.124-20.3-28.248-20.3-42.372s7.062-27.366,20.3-40.607c9.71-8.828,15.007-18.538,15.007-28.248s-5.3-19.421-15.007-30.014a8.534,8.534,0,0,1,0-12.359,8.534,8.534,0,0,1,12.359,0C261.621,14.89,267.8,29.9,267.8,44.021s-7.062,28.248-20.3,40.607c-9.71,8.828-15.007,18.538-15.007,28.248s5.3,19.421,15.007,30.014a8.534,8.534,0,0,1,0,12.359A8.016,8.016,0,0,1,241.317,157.9Z"/>
    <path id="Path_44" data-name="Path 44" d="M338.421,157.9a8.014,8.014,0,0,1-6.179-2.648c-13.242-14.125-20.3-28.249-20.3-42.373S319,85.51,332.241,72.269c9.71-9.71,15.007-18.538,15.007-28.248s-5.3-19.421-15.007-30.014a8.534,8.534,0,0,1,0-12.359,8.534,8.534,0,0,1,12.359,0c14.124,13.241,20.3,27.366,20.3,42.372,0,14.124-7.062,28.248-21.186,40.607-9.71,8.828-15.007,18.538-15.007,28.248s5.3,19.421,15.007,30.014a8.534,8.534,0,0,1,0,12.359C342.835,157.014,340.186,157.9,338.421,157.9Z"/>
    <path id="Path_45" data-name="Path 45" d="M153.041,157.9a8.014,8.014,0,0,1-6.179-2.648c-13.241-14.124-20.3-28.248-20.3-42.372s7.062-27.366,20.3-40.607c9.71-9.71,15.007-18.538,15.007-28.248s-5.3-19.421-15.007-30.014a8.534,8.534,0,0,1,0-12.359,8.534,8.534,0,0,1,12.359,0c14.124,13.241,20.3,27.366,20.3,42.372,0,14.124-7.062,28.248-21.186,40.607-9.71,8.828-15.007,18.538-15.007,28.248s5.3,19.421,15.007,30.014a8.534,8.534,0,0,1,0,12.359C157.455,157.014,154.807,157.9,153.041,157.9Z"/>
    <path id="Path_46" data-name="Path 46" d="M241.317,458.034c-119.172,0-188.91-48.552-210.979-148.3-.883-4.414,1.766-9.71,6.179-10.593s9.71,1.766,10.593,7.062C68.3,398.007,130.089,440.379,241.317,440.379c176.552,0,202.152-110.345,203.034-229.517H38.283c0,15.89.883,30.014,1.766,43.255a9.6,9.6,0,0,1-7.945,9.71,9.6,9.6,0,0,1-9.71-7.945c-.883-13.241-1.766-28.248-1.766-45.021a18.1,18.1,0,0,1,17.656-17.656H444.353a18.1,18.1,0,0,1,17.656,17.656C461.124,333.566,433.759,458.034,241.317,458.034Z"/>
    <path id="Path_47" data-name="Path 47" d="M42.7,282.366c0-5.3-3.531-8.828-8.828-8.828s-8.828,3.531-8.828,8.828,3.531,8.828,8.828,8.828a8.847,8.847,0,0,0,8.828-8.828"/>
    <path id="Path_48" data-name="Path 48" d="M387.855,398.007l14.124-16.772c36.193-45.021,42.372-109.462,43.255-161.545v-6.179l7.062-2.648h1.766c29.131,0,52.966,31.779,52.966,70.621,0,50.317-30.014,105.048-97.1,113.876Zm74.152-167.724c-1.766,45.9-7.062,98.869-33.545,142.124,44.138-15.007,60.028-56.5,60.028-90.924C488.49,256.766,477.014,235.579,462.007,230.283Z"/>
    <path id="Path_49" data-name="Path 49" d="M188.352,413.9h-1.766c-69.738-12.359-107.7-52.083-121.82-130.649-.883-4.414,2.648-9.71,7.062-10.593s9.71,2.648,10.593,7.062c13.241,70.621,45.021,105.931,107.7,116.524a9.156,9.156,0,0,1,7.062,10.593A8.6,8.6,0,0,1,188.352,413.9Z"/>
  </g>
</svg>
