<svg xmlns="http://www.w3.org/2000/svg" viewBox="5906 525 26 25">
  <defs>
    <style>
      .cls-1 {
        fill: #fedd61;
      }

      .cls-2 {
        fill: #d3d3d3;
      }
    </style>
  </defs>
  <g id="counter" transform="translate(5906 525)">
    <g id="coffee-cup">
      <path id="Shape" class="cls-1" d="M22.625,12.967h-1.8l.095-2.068a.877.877,0,0,0-.227-.633A.812.812,0,0,0,20.1,10H1.915a.812.812,0,0,0-.6.266.878.878,0,0,0-.227.633l.367,7.993A5.063,5.063,0,0,0,4.35,23.284H.827A.859.859,0,0,0,.827,25H21.3a.859.859,0,0,0,0-1.716h-3.64a5.016,5.016,0,0,0,2.729-3.308h2.233a3.507,3.507,0,0,0,0-7.008ZM15.679,22H6.334A3.282,3.282,0,0,1,3.108,18.81l-.326-7.094H19.231l-.326,7.094A3.282,3.282,0,0,1,15.679,22Zm6.946-3.744H20.586l.164-3.577.037,0h1.838a1.789,1.789,0,0,1,0,3.576Z"/>
      <path id="Shape-2" data-name="Shape" class="cls-2" d="M8.632,8.885a.757.757,0,0,0,.4.115.782.782,0,0,0,.68-.407.852.852,0,0,0-.278-1.135A1.923,1.923,0,0,1,8.6,6.08a2.13,2.13,0,0,1,.418-1.674l.009-.011c.086-.105.172-.209.257-.311a6.449,6.449,0,0,0,1.7-3.114.826.826,0,0,0-.644-.957.793.793,0,0,0-.911.676A5.027,5.027,0,0,1,8.1,3q-.13.156-.26.316a3.86,3.86,0,0,0-.792,3.025A3.574,3.574,0,0,0,8.632,8.885Z"/>
      <path id="Shape-3" data-name="Shape" class="cls-2" d="M11.223,7.014A4.245,4.245,0,0,0,12.54,8.83a.769.769,0,0,0,.481.17.781.781,0,0,0,.632-.326.853.853,0,0,0-.15-1.161,2.606,2.606,0,0,1-.8-1.1c-.309-.832-.016-1.661.981-2.772A5.213,5.213,0,0,0,14.99.959.825.825,0,0,0,14.331.01.8.8,0,0,0,13.422.7a3.49,3.49,0,0,1-.9,1.811C12,3.09,10.42,4.855,11.223,7.014Z"/>
    </g>
  </g>
</svg>
