<svg xmlns="http://www.w3.org/2000/svg" viewBox="-1542 403 43.5 43.5">
  <defs>
    <style>
      .cls-1 {
        fill: #cccacc;
      }
    </style>
  </defs>
  <g id="internet" transform="translate(-1542 403)">
    <path id="Path_32" data-name="Path 32" class="cls-1" d="M38.016,36.167A21.692,21.692,0,0,0,37.6,6.875h0s-.007-.006-.01-.01A21.688,21.688,0,0,0,22.5.02h0L22.079.008C21.97,0,21.86,0,21.75,0s-.22,0-.329.007L21,.019h0A21.688,21.688,0,0,0,5.915,6.864s-.008.005-.01.01v0a21.69,21.69,0,0,0-.421,29.291c0,.007,0,.014.01.021s.033.028.047.045A21.7,21.7,0,0,0,21,43.481h0l.422.011c.11,0,.22.007.33.007s.22,0,.329-.007l.422-.011h0a21.7,21.7,0,0,0,15.469-7.264c.01-.013.025-.016.035-.03S38.011,36.173,38.016,36.167ZM1.519,22.5h9a27.717,27.717,0,0,0,1.811,9.163,27.655,27.655,0,0,0-6.083,3.1A20.156,20.156,0,0,1,1.519,22.5ZM6.659,8.267a27.587,27.587,0,0,0,5.925,2.912A27.7,27.7,0,0,0,10.521,21h-9A20.162,20.162,0,0,1,6.659,8.267ZM41.981,21h-9a27.7,27.7,0,0,0-2.062-9.821,27.587,27.587,0,0,0,5.925-2.911A20.161,20.161,0,0,1,41.981,21ZM21,11.222a26.219,26.219,0,0,1-6.353-.962A26.241,26.241,0,0,1,21,1.983Zm0,1.5V21H12.021a26.194,26.194,0,0,1,2-9.356A27.711,27.711,0,0,0,21,12.722Zm1.5,0a27.689,27.689,0,0,0,6.98-1.078,26.194,26.194,0,0,1,2,9.356H22.5V12.722Zm0-1.5V1.983a26.241,26.241,0,0,1,6.353,8.277,26.219,26.219,0,0,1-6.353.962ZM30.307,9.8a27.7,27.7,0,0,0-5.916-8.126A20.192,20.192,0,0,1,35.778,7.166,26.086,26.086,0,0,1,30.307,9.8Zm-17.114,0a26.063,26.063,0,0,1-5.47-2.638A20.19,20.19,0,0,1,19.11,1.678,27.686,27.686,0,0,0,13.193,9.8ZM12.021,22.5H21v7.529a27.662,27.662,0,0,0-7.246,1.156A26.193,26.193,0,0,1,12.021,22.5ZM21,31.528v9.988a26.227,26.227,0,0,1-6.663-8.938A26.15,26.15,0,0,1,21,31.529Zm1.5,9.988V31.528a26.15,26.15,0,0,1,6.663,1.05A26.223,26.223,0,0,1,22.5,41.517Zm0-11.488V22.5h8.979a26.183,26.183,0,0,1-1.734,8.685A27.621,27.621,0,0,0,22.5,30.028ZM32.979,22.5h9a20.153,20.153,0,0,1-4.73,12.261,27.655,27.655,0,0,0-6.083-3.1A27.7,27.7,0,0,0,32.979,22.5ZM7.268,35.884a26.138,26.138,0,0,1,5.638-2.836,27.675,27.675,0,0,0,6.2,8.774A20.207,20.207,0,0,1,7.268,35.884Zm17.123,5.938a27.659,27.659,0,0,0,6.2-8.773,26.156,26.156,0,0,1,5.638,2.836,20.207,20.207,0,0,1-11.841,5.938Z"/>
  </g>
</svg>
