<svg xmlns="http://www.w3.org/2000/svg" viewBox="-1573.396 736.705 30.578 30.591">
  <defs>
    <style>
      .cls-1 {
        fill: #b6b6b6;
      }
    </style>
  </defs>
  <g id="Group_26" data-name="Group 26" transform="translate(-1572.503 737.705)">
    <path id="Path_37" data-name="Path 37" class="cls-1" d="M125.132,29.591H112.283a2.263,2.263,0,0,1-2.243-2.243V1.243A2.263,2.263,0,0,1,112.283-1h12.848a2.263,2.263,0,0,1,2.243,2.243v26.1A2.263,2.263,0,0,1,125.132,29.591ZM112.283.02a1.241,1.241,0,0,0-1.224,1.224v26.1a1.241,1.241,0,0,0,1.224,1.224h12.848a1.241,1.241,0,0,0,1.224-1.224V1.243A1.241,1.241,0,0,0,125.132.02H112.283Z" transform="translate(-104.305)"/>
    <path id="Path_38" data-name="Path 38" class="cls-1" d="M223.013,421.213a2.039,2.039,0,1,1,2.039-2.039A2.045,2.045,0,0,1,223.013,421.213Zm0-3.059a1.02,1.02,0,1,0,1.02,1.02A1.023,1.023,0,0,0,223.013,418.154Z" transform="translate(-208.611 -393.151)"/>
    <path id="Path_39" data-name="Path 39" class="cls-1" d="M126.865,392.554H110.55a.51.51,0,0,1,0-1.02h16.315a.51.51,0,1,1,0,1.02Z" transform="translate(-104.305 -369.081)"/>
    <path id="Path_40" data-name="Path 40" class="cls-1" d="M126.865,51.221H110.55a.51.51,0,0,1,0-1.02h16.315a.51.51,0,0,1,0,1.02Z" transform="translate(-104.305 -48.142)"/>
    <path id="Path_41" data-name="Path 41" class="cls-1" d="M214.99,25.621h-2.039a.51.51,0,1,1,0-1.02h2.039a.51.51,0,0,1,0,1.02Z" transform="translate(-200.588 -24.071)"/>
    <path id="Path_42" data-name="Path 42" class="cls-1" d="M273.194,25.621h-.51a.51.51,0,0,1,0-1.02h.51a.51.51,0,0,1,0,1.02Z" transform="translate(-256.752 -24.071)"/>
    <path id="Path_43" data-name="Path 43" class="cls-1" d="M468.1,43.508a.463.463,0,0,1-.357-.153.493.493,0,0,1,0-.714,4.955,4.955,0,0,0,0-6.934.5.5,0,1,1,.714-.714,5.939,5.939,0,0,1,0,8.362A.463.463,0,0,1,468.1,43.508Z" transform="translate(-440.49 -33.699)"/>
    <path id="Path_44" data-name="Path 44" class="cls-1" d="M432.257,61.744a.463.463,0,0,1-.357-.153.493.493,0,0,1,0-.714,3.363,3.363,0,0,0,.969-2.345,3.273,3.273,0,0,0-.969-2.345.5.5,0,0,1,.714-.714,4.4,4.4,0,0,1,1.275,3.11,4.487,4.487,0,0,1-1.275,3.11C432.512,61.693,432.41,61.744,432.257,61.744Z" transform="translate(-406.791 -52.955)"/>
    <path id="Path_45" data-name="Path 45" class="cls-1" d="M1.2,44.311a.463.463,0,0,1-.357-.153,5.66,5.66,0,0,1-1.733-4.13A5.861,5.861,0,0,1,.84,35.847a.493.493,0,0,1,.714,0,.493.493,0,0,1,0,.714,4.955,4.955,0,0,0,0,6.934.493.493,0,0,1,0,.714A.738.738,0,0,1,1.2,44.311Z" transform="translate(0 -34.502)"/>
    <path id="Path_46" data-name="Path 46" class="cls-1" d="M44.258,59.235a.463.463,0,0,1-.357-.153,4.4,4.4,0,0,1-1.275-3.11A4.279,4.279,0,0,1,43.9,52.913a.5.5,0,0,1,.714.714,3.362,3.362,0,0,0-.969,2.345,3.58,3.58,0,0,0,.969,2.4.493.493,0,0,1,0,.714A.463.463,0,0,1,44.258,59.235Z" transform="translate(-40.92 -50.548)"/>
  </g>
</svg>
