<svg xmlns="http://www.w3.org/2000/svg" viewBox="3745.888 668.852 24.157 24.153">
  <defs>
    <style>
      .cls-1 {
        fill: #fff;
      }

      .cls-2 {
        fill: #b6b6b6;
      }
    </style>
  </defs>
  <g id="location" transform="translate(3745.888 668.814)">
    <path id="Path_19" data-name="Path 19" class="cls-1" d="M15.344,375.393H16.2c-3.829.476-6.491,1.8-6.491,3.02,0,1.641,4.8,2.975,10.779,3.018l-.31,0c-6.449,0-11.677-1.352-11.677-3.02,0-1.222,2.808-2.544,6.845-3.02" transform="translate(-8.098 -357.643)"/>
    <path id="Path_24" data-name="Path 24" class="cls-1" d="M101.493,10.768h0a7.292,7.292,0,0,1,5.477-2.129,6.4,6.4,0,0,0-4.127,2.129h0a8.392,8.392,0,0,0-.68,10.339l4.545,8.4-.04.058-5.855-8.456a8.392,8.392,0,0,1,.68-10.339" transform="translate(-94.661 -8.189)"/>
    <g id="Group_25" data-name="Group 25" transform="translate(0 0.038)">
      <path id="Path_25" data-name="Path 25" class="cls-2" d="M199.084,107.994a2.817,2.817,0,1,1,2.817-2.817A2.82,2.82,0,0,1,199.084,107.994Zm0-4.832a2.015,2.015,0,1,0,2.015,2.015A2.017,2.017,0,0,0,199.084,103.162Z" transform="translate(-187.006 -97.532)"/>
      <path id="Path_26" data-name="Path 26" class="cls-2" d="M98.6,21.775a.4.4,0,0,1-.33-.173l-5.851-8.45A8.8,8.8,0,0,1,93.138,2.3a7.729,7.729,0,0,1,10.918,0,8.8,8.8,0,0,1,.722,10.857L98.927,21.6A.4.4,0,0,1,98.6,21.775ZM98.6.836a6.873,6.873,0,0,0-4.892,2.026,7.948,7.948,0,0,0-.642,9.815l.009.012,5.525,7.98,5.525-7.98.009-.012a7.948,7.948,0,0,0-.642-9.815A6.873,6.873,0,0,0,98.6.836Z" transform="translate(-86.59 -0.038)"/>
      <path id="Path_27" data-name="Path 27" class="cls-2" d="M12.078,373.734a34.922,34.922,0,0,1-8.358-.9C2.023,372.4,0,371.6,0,370.313c0-.779.742-1.524,2.145-2.156A17.964,17.964,0,0,1,7.2,366.894a.4.4,0,1,1,.094.8C3.058,368.19.8,369.534.8,370.313c0,.434.817,1.152,3.12,1.747a34.115,34.115,0,0,0,8.157.872,34.114,34.114,0,0,0,8.157-.872c2.3-.6,3.12-1.313,3.12-1.747,0-.779-2.256-2.123-6.491-2.622a.4.4,0,1,1,.094-.8,17.963,17.963,0,0,1,5.054,1.263c1.4.631,2.145,1.377,2.145,2.156,0,1.291-2.023,2.085-3.721,2.524A34.921,34.921,0,0,1,12.078,373.734Z" transform="translate(0 -349.581)"/>
    </g>
  </g>
</svg>
