<svg xmlns="http://www.w3.org/2000/svg" viewBox="-1530.124 405.448 35.244 51.104">
  <defs>
    <style>
      .cls-1 {
        fill: #cccacc;
      }
    </style>
  </defs>
  <g id="icon" transform="translate(-1599.744 406.448)">
    <g id="Group_20" data-name="Group 20" transform="translate(69.62 -1)">
      <path id="Path_28" data-name="Path 28" class="cls-1" d="M214.386,276.163a3.535,3.535,0,0,1-3.524-3.524v-5.287a3.524,3.524,0,0,1,7.049,0v5.287A3.535,3.535,0,0,1,214.386,276.163Zm0-10.573a1.767,1.767,0,0,0-1.762,1.762v5.287a1.762,1.762,0,0,0,3.524,0v-5.287A1.767,1.767,0,0,0,214.386,265.59Z" transform="translate(-196.764 -237.395)"/>
      <path id="Path_29" data-name="Path 29" class="cls-1" d="M87.242,193.14a17.622,17.622,0,1,1,17.622-17.622A17.674,17.674,0,0,1,87.242,193.14Zm0-33.482a15.86,15.86,0,1,0,15.86,15.86A15.906,15.906,0,0,0,87.242,159.658Z" transform="translate(-69.62 -142.036)"/>
      <path id="Path_30" data-name="Path 30" class="cls-1" d="M167.571,19.177a.832.832,0,0,1-.881-.881V7.987c0-3.965-3.524-7.225-7.93-7.225s-7.93,3.26-7.93,7.225V18.208a.881.881,0,1,1-1.762,0V7.987c0-4.934,4.317-8.987,9.692-8.987s9.692,4.053,9.692,8.987V18.208A.906.906,0,0,1,167.571,19.177Z" transform="translate(-141.138 1)"/>
    </g>
  </g>
</svg>
