<svg xmlns="http://www.w3.org/2000/svg" viewBox="-1532 412 38.399 38.4">
  <defs>
    <style>
      .cls-1 {
        fill: #cccacc;
      }
    </style>
  </defs>
  <g id="phone" transform="translate(-1532.001 412)">
    <path id="Path_32" data-name="Path 32" class="cls-1" d="M31.941,0H15.819A2.823,2.823,0,0,0,13,2.819V35.58a2.823,2.823,0,0,0,2.819,2.82H31.94a2.823,2.823,0,0,0,2.82-2.819V2.819A2.823,2.823,0,0,0,31.941,0ZM14.28,5.12h19.2V29.44H14.28Zm1.539-3.84H31.94a1.541,1.541,0,0,1,1.54,1.539V3.84H14.28V2.819A1.541,1.541,0,0,1,15.819,1.28ZM31.941,37.12H15.819a1.541,1.541,0,0,1-1.539-1.539V30.72h19.2v4.861A1.541,1.541,0,0,1,31.941,37.12Z" transform="translate(-4.68)"/>
    <path id="Path_33" data-name="Path 33" class="cls-1" d="M28.56,49a2.56,2.56,0,1,0,2.56,2.56A2.563,2.563,0,0,0,28.56,49Zm0,3.84a1.28,1.28,0,1,1,1.28-1.28A1.281,1.281,0,0,1,28.56,52.84Z" transform="translate(-9.36 -17.64)"/>
    <path id="Path_34" data-name="Path 34" class="cls-1" d="M25.64,4.28H28.2A.64.64,0,0,0,28.2,3H25.64a.64.64,0,0,0,0,1.28Z" transform="translate(-9 -1.08)"/>
    <path id="Path_35" data-name="Path 35" class="cls-1" d="M32.64,4.28h.64a.64.64,0,1,0,0-1.28h-.64a.64.64,0,0,0,0,1.28Z" transform="translate(-11.52 -1.08)"/>
    <path id="Path_36" data-name="Path 36" class="cls-1" d="M56,4.464a.64.64,0,1,0-.9.9,6.14,6.14,0,0,1,0,8.673.64.64,0,1,0,.9.9A7.421,7.421,0,0,0,56,4.464Z" transform="translate(-19.765 -1.539)"/>
    <path id="Path_37" data-name="Path 37" class="cls-1" d="M51.787,6.74a.64.64,0,1,0-.9.9,4.2,4.2,0,0,1,0,5.937.64.64,0,0,0,.9.9,5.483,5.483,0,0,0,0-7.747Z" transform="translate(-18.25 -2.359)"/>
    <path id="Path_38" data-name="Path 38" class="cls-1" d="M3.074,5.369a.64.64,0,1,0-.9-.9,7.421,7.421,0,0,0,0,10.483.64.64,0,1,0,.9-.9A6.139,6.139,0,0,1,3.074,5.369Z" transform="translate(0 -1.539)"/>
    <path id="Path_39" data-name="Path 39" class="cls-1" d="M7.6,6.463a.639.639,0,0,0-.9,0,5.483,5.483,0,0,0,0,7.747.64.64,0,1,0,.9-.9,4.2,4.2,0,0,1,0-5.937.64.64,0,0,0,0-.9Z" transform="translate(-1.834 -2.259)"/>
  </g>
</svg>
