<svg xmlns="http://www.w3.org/2000/svg" viewBox="687 486 512 512">
  <defs>
    <style>
      .cls-1 {
        fill: #fec861;
      }

      .cls-2 {
        fill: #fedd61;
      }

      .cls-3 {
        fill: #fff;
      }

      .cls-4 {
        fill: #5c3d0e;
      }
    </style>
  </defs>
  <g id="user-3" transform="translate(688 487)">
    <path id="Path_31" data-name="Path 31" class="cls-1" d="M502.467,255c0,136.533-110.933,247.467-247.467,247.467S7.533,391.533,7.533,255,118.467,7.533,255,7.533,502.467,118.467,502.467,255"/>
    <path id="Path_32" data-name="Path 32" class="cls-2" d="M476.867,255c0,136.533-98.987,247.467-221.867,247.467S33.133,391.533,33.133,255,132.12,7.533,255,7.533,476.867,118.467,476.867,255"/>
    <path id="Path_33" data-name="Path 33" class="cls-3" d="M33.133,255C33.133,118.467,132.12,7.533,255,7.533,118.467,7.533,7.533,118.467,7.533,255S118.467,502.467,255,502.467C132.12,502.467,33.133,391.533,33.133,255"/>
    <path id="Path_34" data-name="Path 34" class="cls-3" d="M458.947,394.947c-5.12-54.613-51.2-97.28-107.52-97.28H301.08a11.666,11.666,0,0,1-11.947-11.947V280.6a12.149,12.149,0,0,1,7.68-11.093c49.493-18.773,83.627-99.84,76.8-157.013C366.787,57.88,323.267,14.36,268.653,8.387a64.611,64.611,0,0,0-12.8-.853h0c-65.707,0-119.467,53.76-119.467,119.467,0,51.2,32.427,126.293,77.653,142.507a12.15,12.15,0,0,1,7.68,11.093v5.12a11.666,11.666,0,0,1-11.947,11.947H159.425c-56.32,0-102.4,42.667-107.52,97.28C95.427,459.8,170.52,502.467,255,502.467a247.118,247.118,0,0,0,203.947-107.52"/>
    <path id="Path_35" data-name="Path 35" class="cls-2" d="M351.427,297.667H314.734L255,365.933l-68.267-68.267h-28.16c-56.32,0-102.4,42.667-107.52,97.28a247.186,247.186,0,0,0,407.894,0c-5.12-54.614-51.2-97.28-107.52-97.28"/>
    <g id="Group_26" data-name="Group 26">
      <path id="Path_36" data-name="Path 36" class="cls-4" d="M127,475.16c-5.12,0-8.533-3.413-8.533-8.533V408.6c0-5.12,3.413-8.533,8.533-8.533s8.533,3.413,8.533,8.533v58.027C135.533,471.747,132.12,475.16,127,475.16Z"/>
      <path id="Path_37" data-name="Path 37" class="cls-4" d="M383,475.16c-5.12,0-8.533-3.413-8.533-8.533V408.6c0-5.12,3.413-8.533,8.533-8.533s8.533,3.413,8.533,8.533v58.027C391.533,471.747,388.12,475.16,383,475.16Z"/>
      <path id="Path_38" data-name="Path 38" class="cls-4" d="M255,374.467a7.744,7.744,0,0,1-5.973-2.56L180.76,303.64a7.791,7.791,0,0,1-1.707-9.387q2.561-5.119,7.68-5.12H208.92c5.12,0,8.533,3.413,8.533,8.533s-3.413,8.533-8.533,8.533h-1.707L255,353.987,302.787,306.2H301.08c-5.12,0-8.533-3.413-8.533-8.533s3.413-8.533,8.533-8.533h22.187c3.413,0,6.827,1.707,7.68,5.12a7.79,7.79,0,0,1-1.707,9.387l-68.267,68.267A7.75,7.75,0,0,1,255,374.467Z"/>
      <path id="Path_39" data-name="Path 39" class="cls-4" d="M255,511C114.2,511-1,395.8-1,255S114.2-1,255-1,511,114.2,511,255,395.8,511,255,511Zm0-494.933C123.587,16.067,16.067,123.587,16.067,255S123.587,493.933,255,493.933,493.933,386.413,493.933,255,386.413,16.067,255,16.067Z"/>
      <path id="Path_40" data-name="Path 40" class="cls-4" d="M255,511A256.479,256.479,0,0,1,43.373,399.213a12.337,12.337,0,0,1-1.707-5.973A116.628,116.628,0,0,1,157.719,288.28h50.347a3.67,3.67,0,0,0,3.413-3.413V280.6c0-1.707-.853-2.56-1.707-2.56C162.84,260.12,127,183.32,127,127A128.194,128.194,0,0,1,255-1h0a82.826,82.826,0,0,1,14.507.853c58.027,6.827,104.96,53.76,112.64,111.787,6.827,59.733-27.307,145.92-81.92,166.4-.853,0-2.56,1.707-2.56,3.413v5.12a3.67,3.67,0,0,0,3.413,3.413h50.347A116.628,116.628,0,0,1,467.48,394.946c0,1.707,0,4.267-1.707,5.973C418.84,469.187,339.48,511,255,511ZM59.587,392.387a238.8,238.8,0,0,0,390.826,0A99.486,99.486,0,0,0,351.426,306.2H301.08a20.765,20.765,0,0,1-20.48-20.48V280.6a19.2,19.2,0,0,1,13.653-18.773c46.08-17.067,77.653-95.573,70.827-148.48C359.107,63,318.147,22.04,267.8,16.92a56.362,56.362,0,0,0-11.947-.853h0c-29.867,0-58.027,11.093-78.507,32.427-21.333,21.333-33.28,48.64-33.28,78.507,0,49.493,31.573,119.467,72.533,134.827,7.68,2.56,12.8,10.24,12.8,18.773v5.12a20.765,20.765,0,0,1-20.48,20.48H158.572A99.482,99.482,0,0,0,59.587,392.387Z"/>
    </g>
    <path id="Path_41" data-name="Path 41" class="cls-2" d="M291.693,64.707c31.573,8.533,61.44,28.16,81.067,53.76v-5.973c-7.68-53.76-52.053-97.28-105.813-103.253a64.611,64.611,0,0,0-12.8-.853h0c-58.88,0-108.373,42.667-117.76,98.987h0c1.707,2.56,52.053-20.48,75.947-10.24a57.266,57.266,0,0,0,23.893,5.12c24.746,0,46.08-16.215,55.466-37.548"/>
    <path id="Path_42" data-name="Path 42" class="cls-4" d="M371.907,127a7.762,7.762,0,0,1-6.827-3.413c-16.213-22.187-40.96-39.253-69.12-48.64a67.96,67.96,0,0,1-59.733,35.84,60.692,60.692,0,0,1-27.307-5.973c-14.507-6.827-45.227,3.413-59.733,7.68-11.093,3.413-16.213,5.12-20.48-.853C127,109.933,127,107.373,127,105.667A128.139,128.139,0,0,1,253.293-.147h0c5.12,0,10.24,0,14.507.853,58.027,6.827,104.96,53.76,112.64,111.787v5.974c0,3.413-1.707,7.68-5.12,8.533ZM253.293,16.92c-49.493,0-92.16,31.573-105.813,78.507,18.773-5.973,48.64-14.507,68.267-5.973,6.827,2.56,13.653,4.267,20.48,4.267,21.333,0,39.253-12.8,47.787-32.427,1.707-4.267,5.973-5.973,10.24-5.12a171.514,171.514,0,0,1,64,34.133C344.6,51.053,308.76,22.04,266.093,16.92Z"/>
  </g>
</svg>
