<svg xmlns="http://www.w3.org/2000/svg" viewBox="-1535.728 308.272 47.456 47.456">
  <defs>
    <style>
      .cls-1 {
        fill: #fff;
      }

      .cls-2 {
        fill: #cccacc;
      }
    </style>
  </defs>
  <g id="icon" transform="translate(-1534.728 309.272)">
    <path id="Path_11" data-name="Path 11" class="cls-1" d="M9.906,30.47c0-12.655,9.175-22.937,20.564-22.937a22.937,22.937,0,0,0,0,45.874c-11.39,0-20.564-10.282-20.564-22.937" transform="translate(-7.742 -7.742)"/>
    <g id="Group_18" data-name="Group 18" transform="translate(-1 -1)">
      <path id="Path_14" data-name="Path 14" class="cls-2" d="M119.258,407.027a.747.747,0,0,1-.791-.791v-5.378a.791.791,0,0,1,1.582,0v5.378A.747.747,0,0,1,119.258,407.027Z" transform="translate(-107.394 -362.893)"/>
      <path id="Path_15" data-name="Path 15" class="cls-2" d="M375.258,407.027a.747.747,0,0,1-.791-.791v-5.378a.791.791,0,0,1,1.582,0v5.378A.747.747,0,0,1,375.258,407.027Z" transform="translate(-339.666 -362.893)"/>
      <path id="Path_16" data-name="Path 16" class="cls-2" d="M185.287,297.042a.718.718,0,0,1-.554-.237l-6.328-6.328a.722.722,0,0,1-.158-.87.76.76,0,0,1,.712-.475h2.056a.791.791,0,1,1,0,1.582h-.158l4.429,4.429,4.429-4.429h-.158a.791.791,0,0,1,0-1.582h2.056a.692.692,0,0,1,.712.475.722.722,0,0,1-.158.87l-6.328,6.328A.718.718,0,0,1,185.287,297.042Z" transform="translate(-161.559 -262.241)"/>
      <path id="Path_17" data-name="Path 17" class="cls-2" d="M22.728,46.456A23.728,23.728,0,1,1,46.456,22.728,23.8,23.8,0,0,1,22.728,46.456Zm0-45.874A22.146,22.146,0,1,0,44.874,22.728,22.211,22.211,0,0,0,22.728.582Z" transform="translate(1 1)"/>
      <path id="Path_18" data-name="Path 18" class="cls-2" d="M61.44,46.456A23.773,23.773,0,0,1,41.824,36.095a1.143,1.143,0,0,1-.158-.554,10.81,10.81,0,0,1,10.757-9.729h4.667a.34.34,0,0,0,.316-.316v-.4c0-.158-.079-.237-.158-.237-4.35-1.661-7.672-8.779-7.672-14A11.882,11.882,0,0,1,61.44-1h0a7.677,7.677,0,0,1,1.345.079A12.084,12.084,0,0,1,73.225,9.44c.633,5.537-2.531,13.525-7.593,15.423a.353.353,0,0,0-.237.316v.475a.34.34,0,0,0,.316.316h4.667A10.81,10.81,0,0,1,81.134,35.7a.753.753,0,0,1-.158.554A23.781,23.781,0,0,1,61.44,46.456ZM43.327,35.462a22.134,22.134,0,0,0,36.225,0,9.221,9.221,0,0,0-9.175-7.989H65.711a1.925,1.925,0,0,1-1.9-1.9V25.1a1.78,1.78,0,0,1,1.265-1.74c4.271-1.582,7.2-8.858,6.565-13.762A10.25,10.25,0,0,0,62.626.661,5.224,5.224,0,0,0,61.519.582h0a9.971,9.971,0,0,0-7.277,3.006,10.178,10.178,0,0,0-3.085,7.277c0,4.587,2.926,11.073,6.723,12.5a1.811,1.811,0,0,1,1.186,1.74v.475a1.925,1.925,0,0,1-1.9,1.9H52.5A9.221,9.221,0,0,0,43.327,35.462Z" transform="translate(-37.711 1)"/>
    </g>
    <path id="Path_20" data-name="Path 20" class="cls-2" d="M149.7,11.638a.719.719,0,0,1-.633-.316,13.021,13.021,0,0,0-6.407-4.508,6.3,6.3,0,0,1-5.537,3.322,5.625,5.625,0,0,1-2.531-.554c-1.345-.633-4.192.316-5.537.712-1.028.316-1.5.475-1.9-.079A.753.753,0,0,1,127,9.661,11.877,11.877,0,0,1,138.706-.147h0a7.24,7.24,0,0,1,1.345.079,12.084,12.084,0,0,1,10.44,10.361v.554a.794.794,0,0,1-.475.791Zm-10.994-10.2A10.109,10.109,0,0,0,128.9,8.712c1.74-.554,4.508-1.345,6.328-.554a5.437,5.437,0,0,0,1.9.4,4.805,4.805,0,0,0,4.429-3.006.807.807,0,0,1,.949-.475,15.9,15.9,0,0,1,5.932,3.164,10.354,10.354,0,0,0-8.542-6.8Z" transform="translate(-116.136 -0.774)"/>
  </g>
</svg>
