<svg xmlns="http://www.w3.org/2000/svg" viewBox="392.749 430.955 156.473 182.089">
  <defs>
    <style>
      .cls-1, .cls-2 {
        fill: #fedd61;
      }

      .cls-1 {
        opacity: 0.2;
      }

      .cls-3 {
        fill: #dd4533;
      }

      .cls-4 {
        fill: #db2613;
      }

      .cls-5 {
        fill: #fff;
      }
    </style>
  </defs>
  <g id="worldwide" transform="translate(356.735 430.955)">
    <path id="Path_11" data-name="Path 11" class="cls-1" d="M114.251,72.029a78.236,78.236,0,1,0,78.237,78.236A78.326,78.326,0,0,0,114.251,72.029Zm63.614,71.124H144.957c-.546-17.079-3.052-33-7.2-45.429a78.769,78.769,0,0,0-3.206-8.167A64.179,64.179,0,0,1,177.865,143.153Zm-63.614,71.124c-1.531,0-5.995-3.9-10.017-15.969-3.686-11.058-5.931-25.39-6.457-40.931h32.947c-.526,15.54-2.771,29.872-6.457,40.931C120.246,210.373,115.782,214.277,114.251,214.277ZM97.777,143.153c.526-15.541,2.771-29.873,6.457-40.931,4.022-12.065,8.486-15.968,10.017-15.968s6,3.9,10.017,15.969c3.686,11.057,5.931,25.389,6.457,40.931Zm-3.832-53.6a78.844,78.844,0,0,0-3.206,8.167c-4.142,12.429-6.648,28.35-7.194,45.43H50.636A64.179,64.179,0,0,1,93.945,89.557ZM50.636,157.378H83.545c.546,17.079,3.052,33,7.194,45.429a79.1,79.1,0,0,0,3.206,8.168A64.18,64.18,0,0,1,50.636,157.378Zm83.921,53.6a79.077,79.077,0,0,0,3.206-8.168c4.142-12.429,6.648-28.35,7.194-45.429h32.908A64.18,64.18,0,0,1,134.557,210.975Z" transform="translate(0 -46.412)"/>
    <path id="Path_12" data-name="Path 12" class="cls-2" d="M256,72.029V86.254c1.531,0,6,3.9,10.018,15.969,3.686,11.057,5.931,25.389,6.457,40.931H256v14.225h16.474c-.526,15.54-2.771,29.872-6.457,40.931-4.022,12.065-8.486,15.969-10.018,15.969V228.5a78.236,78.236,0,0,0,0-156.473Zm63.614,71.124H286.706c-.546-17.079-3.052-33-7.2-45.429a78.768,78.768,0,0,0-3.206-8.167A64.179,64.179,0,0,1,319.614,143.153Zm-43.308,67.822a79.083,79.083,0,0,0,3.206-8.168c4.142-12.429,6.648-28.35,7.194-45.429h32.908A64.18,64.18,0,0,1,276.306,210.975Z" transform="translate(-141.749 -46.412)"/>
    <path id="Path_13" data-name="Path 13" class="cls-3" d="M196.487,0a32.887,32.887,0,0,0-32.848,32.851c0,29.242,27.774,47.733,28.956,48.505a7.114,7.114,0,0,0,7.783,0,69.708,69.708,0,0,0,8.465-6.831c9.348-8.708,20.491-23.007,20.491-41.675A32.886,32.886,0,0,0,196.487,0Z" transform="translate(-82.236)"/>
    <path id="Path_14" data-name="Path 14" class="cls-4" d="M256,0V82.516a7.109,7.109,0,0,0,3.891-1.159,69.711,69.711,0,0,0,8.465-6.831c9.348-8.708,20.491-23.007,20.491-41.675A32.886,32.886,0,0,0,256,0Z" transform="translate(-141.749)"/>
    <circle id="Ellipse_3" data-name="Ellipse 3" class="cls-5" cx="7.113" cy="7.113" r="7.113" transform="translate(107.137 26.079)"/>
  </g>
</svg>
